<svg width="225" height="47" fill="none" xmlns="http://www.w3.org/2000/svg"><path d="M22.5 45C34.926 45 45 34.926 45 22.5S34.926 0 22.5 0 0 10.074 0 22.5 10.074 45 22.5 45z" fill="#3B5998"/><path d="M28.157 23.38h-4.015v14.71h-6.083V23.38h-2.893v-5.168h2.893v-3.345c0-2.393 1.136-6.138 6.137-6.138l4.505.019v5.017h-3.269c-.536 0-1.29.268-1.29 1.41v3.041h4.546l-.531 5.165z" fill="#fff"/><g clip-path="url(#clip0)"><path d="M82.5 45c12.427 0 22.501-10.074 22.501-22.5 0-12.427-10.074-22.5-22.5-22.5C70.074 0 60 10.073 60 22.5 60 34.926 70.074 45 82.5 45z" fill="#55ACEE"/><path d="M96.282 16.17a10.73 10.73 0 01-3.089.846 5.393 5.393 0 002.365-2.975 10.764 10.764 0 01-3.415 1.305 5.373 5.373 0 00-3.927-1.698 5.379 5.379 0 00-5.238 6.604 15.267 15.267 0 01-11.085-5.62 5.355 5.355 0 00-.728 2.704c0 1.865.95 3.512 2.392 4.476a5.34 5.34 0 01-2.436-.673v.068a5.381 5.381 0 004.314 5.273 5.356 5.356 0 01-2.428.093 5.384 5.384 0 005.024 3.735 10.79 10.79 0 01-6.68 2.302c-.434 0-.863-.025-1.283-.075a15.213 15.213 0 008.244 2.416c9.892 0 15.302-8.195 15.302-15.302 0-.233-.005-.465-.016-.696a10.907 10.907 0 002.684-2.783z" fill="#F1F2F2"/></g><path d="M142.5 47c12.426 0 22.5-10.074 22.5-22.5S154.926 2 142.5 2 120 12.074 120 24.5 130.074 47 142.5 47z" fill="#4D76A1"/><path fill-rule="evenodd" clip-rule="evenodd" d="M141.65 34.368h1.766s.534-.058.806-.352c.251-.27.243-.776.243-.776s-.035-2.37 1.065-2.718c1.084-.344 2.476 2.29 3.952 3.303 1.116.766 1.963.598 1.963.598l3.946-.055s2.064-.127 1.085-1.75c-.08-.132-.57-1.2-2.933-3.394-2.474-2.296-2.143-1.925.837-5.897 1.815-2.419 2.541-3.896 2.314-4.528-.216-.602-1.551-.443-1.551-.443l-4.442.027s-.33-.044-.574.102c-.239.143-.392.476-.392.476s-.703 1.872-1.641 3.464c-1.978 3.36-2.769 3.537-3.092 3.328-.752-.486-.565-1.953-.565-2.995 0-3.255.494-4.612-.961-4.964-.483-.116-.838-.193-2.073-.206-1.585-.016-2.927.005-3.687.377-.505.248-.895.8-.657.83.293.04.958.18 1.311.66.455.62.439 2.01.439 2.01s.261 3.832-.611 4.308c-.599.327-1.42-.34-3.184-3.387-.903-1.561-1.586-3.287-1.586-3.287s-.131-.322-.366-.494c-.285-.21-.682-.276-.682-.276l-4.222.028s-.634.017-.866.293c-.207.245-.017.752-.017.752s3.305 7.732 7.047 11.628c3.432 3.573 7.328 3.338 7.328 3.338z" fill="#fff"/><path d="M180 24.5c0 12.428 10.073 22.5 22.5 22.5S225 36.928 225 24.5C225.001 12.073 214.927 2 202.5 2S180 12.073 180 24.5z" fill="#FA6E51"/><path d="M224.947 25.976L214.45 15.479l-5.425-5.425a.613.613 0 00-.431-.179h-10.969a.61.61 0 00-.609.61v3.046h-6.704a.61.61 0 00-.609.61v24.375c0 .206.109.38.266.49.041.057 7.273 7.29 7.331 7.33.019.028.047.046.069.07 1.649.384 3.365.594 5.131.594 11.931 0 21.686-9.286 22.447-21.024z" fill="#E8573F"/><path d="M215.25 16.343a.61.61 0 00-.132-.196l-6.093-6.093a.615.615 0 00-.431-.179h-10.969a.609.609 0 00-.609.61v3.046h-6.704a.61.61 0 00-.609.61v24.375a.61.61 0 00.609.609h17.063a.61.61 0 00.609-.61V35.47h6.703a.61.61 0 00.61-.61V16.58a.623.623 0 00-.047-.236zm-6.047-4.388l4.014 4.014h-4.014v-4.014zm-2.437 25.951h-15.844V14.75h9.75v5.484c0 .337.273.61.609.61h5.485v17.062zm-.862-18.281h-4.013v-4.013l4.013 4.013zm2.08 14.625V20.234a.605.605 0 00-.178-.43l-6.094-6.094a.6.6 0 00-.431-.179h-3.047v-2.437h9.75v5.484c0 .337.273.61.61.61h5.484V34.25h-6.094z" fill="#F4F6F9"/><defs><clipPath id="clip0"><path fill="#fff" transform="translate(60)" d="M0 0h45v45H0z"/></clipPath></defs></svg>