<svg width="105" height="26" fill="none" xmlns="http://www.w3.org/2000/svg"><path d="M52.5 26C59.404 26 65 20.404 65 13.5S59.404 1 52.5 1 40 6.596 40 13.5 45.596 26 52.5 26z" fill="#4D76A1"/><path fill-rule="evenodd" clip-rule="evenodd" d="M52.028 18.982h.98s.297-.032.449-.195c.139-.15.134-.431.134-.431s-.019-1.317.592-1.51c.602-.192 1.376 1.272 2.196 1.834.62.426 1.09.333 1.09.333l2.193-.03s1.146-.071.602-.973c-.044-.074-.316-.667-1.63-1.886-1.374-1.275-1.19-1.069.466-3.275 1.008-1.344 1.411-2.165 1.285-2.516-.12-.335-.861-.247-.861-.247l-2.468.016s-.183-.025-.319.056c-.132.08-.218.265-.218.265s-.39 1.04-.911 1.924c-1.1 1.867-1.539 1.965-1.718 1.85-.418-.271-.314-1.086-.314-1.665 0-1.808.274-2.562-.534-2.757-.268-.065-.466-.108-1.152-.115-.88-.01-1.626.003-2.048.21-.28.137-.497.443-.365.461.163.022.533.1.728.366.253.344.244 1.117.244 1.117s.146 2.129-.339 2.393c-.333.182-.789-.189-1.769-1.882-.502-.867-.88-1.825-.88-1.825s-.074-.18-.204-.275a1.024 1.024 0 00-.38-.153l-2.345.015s-.352.01-.481.163c-.115.136-.01.418-.01.418s1.837 4.295 3.916 6.46c1.906 1.985 4.07 1.854 4.07 1.854z" fill="#fff"/><g clip-path="url(#clip0)"><path d="M92.5 26c6.903 0 12.5-5.596 12.5-12.5C105 6.597 99.403 1 92.5 1S80 6.597 80 13.5C80 20.404 85.597 26 92.5 26z" fill="#CB2027"/><path d="M93.509 17.739c-.945-.073-1.342-.542-2.083-.992-.407 2.137-.905 4.186-2.38 5.256-.455-3.23.668-5.656 1.19-8.231-.89-1.498.107-4.511 1.983-3.769 2.31.913-1.999 5.568.893 6.15 3.02.606 4.252-5.24 2.38-7.141-2.706-2.746-7.875-.063-7.24 3.867.155.961 1.148 1.253.397 2.579-1.731-.384-2.248-1.75-2.182-3.57.108-2.98 2.678-5.067 5.257-5.356 3.26-.365 6.321 1.197 6.744 4.265.475 3.462-1.472 7.21-4.959 6.942z" fill="#F1F2F2"/></g><g clip-path="url(#clip1)"><path d="M1.563 1.701C-.403 3.741 0 5.909 0 12.495c0 5.469-.954 10.95 4.04 12.242 1.559.4 15.376.4 16.933-.003 2.08-.536 3.77-2.223 4.002-5.163.032-.41.032-13.735-.001-14.153C24.728 2.285 22.8.48 20.259.115 19.677.03 19.56.005 16.573 0 5.976.005 3.653-.467 1.563 1.701z" fill="url(#paint0_linear)"/><path d="M12.498 3.27c-3.782 0-7.374-.337-8.746 3.184-.567 1.454-.484 3.343-.484 6.047 0 2.373-.076 4.603.484 6.046 1.369 3.523 4.99 3.185 8.744 3.185 3.622 0 7.356.377 8.745-3.185.567-1.469.484-3.33.484-6.046 0-3.606.199-5.934-1.55-7.682-1.77-1.771-4.166-1.55-7.681-1.55h.004zm-.827 1.663c7.89-.012 8.894-.89 8.34 11.295-.197 4.31-3.479 3.837-7.512 3.837-7.354 0-7.566-.21-7.566-7.568 0-7.443.584-7.56 6.738-7.566v.002zm5.754 1.533a1.107 1.107 0 100 2.214 1.107 1.107 0 000-2.214zM12.498 7.76a4.74 4.74 0 10.001 9.481 4.74 4.74 0 00-.001-9.48zm0 1.664c4.068 0 4.073 6.154 0 6.154-4.067 0-4.073-6.154 0-6.154z" fill="#fff"/></g><defs><clipPath id="clip0"><path fill="#fff" transform="translate(80 1)" d="M0 0h25v25H0z"/></clipPath><clipPath id="clip1"><path fill="#fff" d="M0 0h25v25H0z"/></clipPath><linearGradient id="paint0_linear" x1="1.61" y1="23.403" x2="24.845" y2="3.294" gradientUnits="userSpaceOnUse"><stop stop-color="#8E7F42"/><stop offset=".5" stop-color="#FF543E"/><stop offset="1" stop-color="#C837AB"/></linearGradient></defs></svg>